<svg xmlns="http://www.w3.org/2000/svg" xmlns:xlink="http://www.w3.org/1999/xlink" fill="none" version="1.1" width="20" height="20" viewBox="0 0 20 20" class="document-fUOLqp"><defs><mask id=":r1f0:" maskUnits="objectBoundingBox"><g><path d="M0 0C0 0 0 0 0 0L20 0C20 0 20 0 20 0L20 20C20 20 20 20 20 20L0 20C0 20 0 20 0 20Z" fill="#FFFFFF" fill-opacity="1"></path></g></mask><linearGradient x1="0.18335774540901184" y1="0" x2="0.8619059324264525" y2="1" id=":r1f1:"><stop offset="0%" stop-color="#1861D4" stop-opacity="1"></stop><stop offset="100%" stop-color="#397FE3" stop-opacity="1"></stop></linearGradient><linearGradient x1="0.5" y1="0" x2="0.5" y2="1" id=":r1f2:"><stop offset="0%" stop-color="#FFFFFF" stop-opacity="0.7868772149085999"></stop><stop offset="100%" stop-color="#FFFFFF" stop-opacity="1"></stop></linearGradient><linearGradient x1="0.5" y1="0" x2="0.5" y2="1" id=":r1f3:"><stop offset="0%" stop-color="#FFFFFF" stop-opacity="1"></stop><stop offset="100%" stop-color="#FFFFFF" stop-opacity="0"></stop></linearGradient></defs><g mask="url(#:r1f0:)"><g><path d="M0 2.444444417953491C2.452636981645965e-16 1.0944150441087677 1.094415044108768 0 2.444444417953491 0L17.55555558204651 0C18.905584955891232 0 20 1.094415044108768 20 2.444444417953491L20 17.55555558204651C20 18.905584955891232 18.905584955891232 20 17.55555558204651 20L2.444444417953491 20C1.094415044108768 20 0 18.905584955891232 0 17.55555558204651Z" fill="url(#:r1f1:)" fill-opacity="1"></path></g><g><path d="M7.5 0C7.5 0 7.5 0 7.5 0L20.000000953674316 0C20.000000953674316 0 20.000000953674316 0 20.000000953674316 0L20.000000953674316 5C20.000000953674316 5 20.000000953674316 5 20.000000953674316 5L7.5 5C7.5 5 7.5 5 7.5 5Z" fill="#FFFFFF" fill-opacity="0.3199999928474426"></path></g><g><path d="M8.75 5C8.75 5 8.75 5 8.75 5L21.250000953674316 5C21.250000953674316 5 21.250000953674316 5 21.250000953674316 5L21.250000953674316 8.749999761581421C21.250000953674316 8.749999761581421 21.250000953674316 8.749999761581421 21.250000953674316 8.749999761581421L8.75 8.749999761581421C8.75 8.749999761581421 8.75 8.749999761581421 8.75 8.749999761581421Z" fill="#FFFFFF" fill-opacity="0.2199999988079071"></path></g><g><path d="M12.5 8.75C12.5 8.75 12.5 8.75 12.5 8.75L25.000000953674316 8.75C25.000000953674316 8.75 25.000000953674316 8.75 25.000000953674316 8.75L25.000000953674316 12.499999761581421C25.000000953674316 12.499999761581421 25.000000953674316 12.499999761581421 25.000000953674316 12.499999761581421L12.5 12.499999761581421C12.5 12.499999761581421 12.5 12.499999761581421 12.5 12.499999761581421Z" fill="#FFFFFF" fill-opacity="0.11999999731779099"></path></g><g><path d="M7.037816271875,15.37890525L8.687816571875,15.37890525C8.792816671875,15.37890525,8.867816471874999,15.33390625,8.882816271875,15.21390525L9.977816571875,9.183906050000001C9.992816471874999,9.12390615,10.052816371875,9.12390615,10.067816271875,9.183906050000001L11.282816871875,15.21390525C11.297816771875,15.31890625,11.372816571875,15.37890525,11.477816571875,15.37890525L13.172818171875,15.37890525C13.277816771875,15.37890525,13.352816571875,15.31890625,13.367815971875,15.21390525L15.557816171875,5.07390626C15.587816171875,4.938906249,15.527816171875,4.878906250004775,15.407817171875,4.878906250004775L13.637816471875,4.878906250004775C13.532816871875,4.878906250004775,13.457817071875,4.923906244,13.442816771875,5.04390626L12.362817271874999,10.80390595C12.347816971875,10.86390635,12.287817471875,10.86390635,12.272816671874999,10.80390595L11.072815871875001,5.04390626C11.057816471875,4.938906249,10.982816171875001,4.878906250004775,10.877816171875,4.878906250004775L9.212816671875,4.878906250004775C9.107816171875001,4.878906250004775,9.032816371875,4.923906244,9.017816571874999,5.04390626L7.922816271875,10.80390595C7.9078166718750005,10.86390635,7.847816271875001,10.86390635,7.832816171875,10.80390595L6.692816471875,5.04390626C6.677816371875,4.923906244,6.602816371875,4.878906250004775,6.497816371875,4.878906250004775L4.652816351875,4.878906250004775C4.532816346875,4.878906250004775,4.457816345875,4.938906249,4.487816347775,5.07390626L6.842816371875,15.22890525C6.872816571875,15.33390625,6.932816271875,15.37890525,7.037816271875,15.37890525Z" fill="url(#:r1f2:)" fill-opacity="1"></path><path d="M7.958501371875,10.61619235L8.000806771875,10.39365435L9.017816571874999,5.04390626C9.032816371875,4.923906244,9.107816171875001,4.87890625,9.212816671875,4.87890625L10.877816171875,4.87890625C10.982816171875001,4.87890625,11.057816471875,4.938906249,11.072815871875001,5.04390626L12.189288571875,10.40297075L12.233937771875,10.61728765L12.267871871875,10.78017045L12.269158371875001,10.786345449999999L12.272816671874999,10.80390595C12.287817471875,10.86390635,12.347816971875,10.86390635,12.362817271874999,10.80390595L12.366475571875,10.78439425L12.367243771875,10.780298250000001L12.398042171875,10.616039749999999L12.438460871875,10.400472650000001L13.442816771875,5.04390626C13.457817071875,4.923906244,13.532816871875,4.87890625,13.637816471875,4.87890625L15.407817171875,4.87890625C15.527816171875,4.87890625,15.587816171875,4.938906249,15.557816171875,5.07390626L13.367815971875,15.21390525C13.352816571875,15.31890625,13.277816771875,15.37890525,13.172818171875,15.37890525L11.477816571875,15.37890525C11.372816571875,15.37890525,11.297816771875,15.31890625,11.282816871875,15.21390525L10.151153071875001,9.59750315L10.105502571875,9.370942150000001L10.072590371875,9.207599649999999L10.071234271875,9.200870049999999L10.067816271875,9.183906050000001C10.052816371875,9.12390615,9.992816471874999,9.12390615,9.977816571875,9.183906050000001L9.974398571875,9.20272925L9.973536471875,9.20747615L9.943639271875,9.37211565L9.902276971875,9.59989075L8.882816271875,15.21390525C8.867816471874999,15.33390625,8.792816671875,15.37890525,8.687816571875,15.37890525L7.037816271875,15.37890525C6.932816271875,15.37890525,6.872816571875,15.33390625,6.842816371875,15.22890525L4.487816347775,5.07390626C4.457816345875,4.938906249,4.532816346875,4.87890625,4.652816351875,4.87890625L6.497816371875,4.87890625C6.602816371875,4.87890625,6.677816371875,4.923906244,6.692816471875,5.04390626L7.751806271875,10.39459325L7.795756371875,10.61665585L7.828131471875,10.78023575L7.829297571875,10.78612805L7.832816171875,10.80390595C7.847816271875001,10.86390635,7.9078166718750005,10.86390635,7.922816271875,10.80390595L7.9263348718749995,10.785397549999999L7.927306871875,10.780283950000001L7.958501371875,10.61619235ZM4.750203761875,5.12335071L7.071845771875,15.13446025L8.648801371874999,15.13446025L9.738732771875,9.13237095L9.740670171875,9.12461995Q9.798209671875,8.89446165,10.022816171875,8.89446165Q10.247423671875,8.89446165,10.304962671875,9.12461995L10.306331171875,9.13009265L11.516167171875,15.13446025L13.134893371875,15.13446025L15.297058171875,5.12335075L13.676626171875,5.12335071L12.601731271875,10.85611965L12.599963171875,10.86319205Q12.542424171875,11.09335085,12.317817671875,11.09335085Q12.093214471875001,11.09335085,12.035671671875,10.863196349999999L12.034497271875,10.858500450000001L10.839674471875,5.12335071L9.251536871875,5.12335071L8.161656171875,10.85641715L8.159962871874999,10.863191149999999Q8.102424871875,11.09335085,7.877816471875001,11.09335085Q7.653209171875,11.09335085,7.595670271875,10.86319205L7.594200371875,10.85731125L6.459353971875,5.12335071L4.750203761875,5.12335071Z" fill-rule="evenodd" fill="url(#:r1f3:)" fill-opacity="1"></path></g></g></svg>